# xmcd CD database file
#
# Track frame offsets:
#	150
#	22975
#	43830
#
# Disc length: 887 seconds
#
# Revision: 0
# Processed by: cddbd v1.5.1PL0 Copyright (c) Steve Scherf et al.
# Submitted via: CDex 1.51
#
DISCID=1c037503
DTITLE=中嶋美智代 - 思われている
DYEAR=1992
DGENRE=JPop
TTITLE0=思われている
TTITLE1=きらわれないように
TTITLE2=思われている(カラオケ)
EXTD=YEAR: 1992
EXTT0=
EXTT1=
EXTT2=
PLAYORDER=
